PathFileType	4	(X/Y/Z)	..\data\2014004\dynamic\2014004_C4_02.trc
DataRate	CameraRate	NumFrames	NumMarkers	Units	OrigDataRate	OrigDataStartFrame	OrigNumFrames
100.000000	100.000000	4	52	mm	100.000000	64	172
Frame#	Time	L_IAS			L_IPS			R_IPS			R_IAS			L_FTC			L_FLE			L_FME			L_FAX			L_TTC			L_FAL			L_TAM			L_FCC			L_FM1			L_FM2			L_FM5			R_FTC			R_FLE			R_FME			R_FAX			R_TTC			R_FAL			R_TAM			R_FCC			R_FM1			R_FM2			R_FM5			CV7			TV10			SXS			SJN			L_SIA			L_SRS			L_SAA			L_SAE			L_HLE			L_HME			L_UOA			L_RSP			L_UHE			L_HM2			L_HM5			R_SIA			R_SRS			R_SAA			R_SAE			R_HLE			R_HME			R_UOA			R_RSP			R_UHE			R_HM2			R_HM5			
		X1	Y1	Z1	X2	Y2	Z2	X3	Y3	Z3	X4	Y4	Z4	X5	Y5	Z5	X6	Y6	Z6	X7	Y7	Z7	X8	Y8	Z8	X9	Y9	Z9	X10	Y10	Z10	X11	Y11	Z11	X12	Y12	Z12	X13	Y13	Z13	X14	Y14	Z14	X15	Y15	Z15	X16	Y16	Z16	X17	Y17	Z17	X18	Y18	Z18	X19	Y19	Z19	X20	Y20	Z20	X21	Y21	Z21	X22	Y22	Z22	X23	Y23	Z23	X24	Y24	Z24	X25	Y25	Z25	X26	Y26	Z26	X27	Y27	Z27	X28	Y28	Z28	X29	Y29	Z29	X30	Y30	Z30	X31	Y31	Z31	X32	Y32	Z32	X33	Y33	Z33	X34	Y34	Z34	X35	Y35	Z35	X36	Y36	Z36	X37	Y37	Z37	X38	Y38	Z38	X39	Y39	Z39	X40	Y40	Z40	X41	Y41	Z41	X42	Y42	Z42	X43	Y43	Z43	X44	Y44	Z44	X45	Y45	Z45	X46	Y46	Z46	X47	Y47	Z47	X48	Y48	Z48	X49	Y49	Z49	X50	Y50	Z50	X51	Y51	Z51	X52	Y52	Z52	

65	0.64	-357.4544982910157	925.1630859375002	134.0175018310547	-550.3641357421876	958.310241699219	216.7212829589844	-550.8547973632814	954.4348754882815	306.261474609375	-351.0123901367189	940.4410400390627	369.2991638183594	-456.1785583496095	870.655456542969	72.73415374755855	-546.7265014648439	471.0252685546876	114.1564788818359	-522.2211303710939	467.5547485351564	239.473876953125	-590.3847045898439	423.231170654297	109.1876525878906	-535.6473999023439	373.0050048828126	173.1234741210937	-797.921325683594	120.1519775390625	149.7494506835937	-764.4230957031251	133.0713043212891	241.8917541503906	-851.8108520507815	115.967399597168	206.5939483642578	-677.2147827148439	28.30107498168946	246.4759826660156	-671.8046875000001	36.5980339050293	187.5558624267578	-710.9130249023439	20.06833648681641	139.813735961914	-394.617645263672	864.353454589844	435.6256408691407	-277.5016174316407	457.8160400390626	388.8754882812501	-254.0363311767579	479.7892456054689	262.68603515625	-276.5773010253907	420.2617492675782	387.9278564453126	-208.2508392333985	429.5152893066407	340.8108825683594	-225.8592681884766	62.36238098144533	338.1177368164063	-216.679428100586	93.28195190429689	244.6814727783203	-275.7262573242189	22.44944000244141	276.3257446289062	-72.05853271484379	43.14538574218751	261.4307250976563	-86.99472808837896	54.62837219238283	315.3072509765626	-111.8417510986329	33.0558090209961	359.3892822265626	-475.6502685546877	1448.436645507813	248.6594085693359	-565.6010131835939	1225.33544921875	244.7448425292969	-324.6980895996095	1164.032836914063	245.1114044189453	-358.3636169433595	1353.423461914063	251.2264862060547	-559.5477905273439	1259.348022460938	126.6070251464843	-527.7726440429689	1397.526123046875	168.1718444824218	-485.0645141601564	1403.439697265625	84.29521942138668	-412.6498413085939	1406.773803710938	62.94882202148434	-398.7164001464845	1090.046020507813	-24.97536468505865	-423.8278808593751	1073.277099609375	58.56995010375973	-428.6061096191407	1055.676513671875	8.258240699768015	-177.6826477050782	933.615173339844	12.12710666656492	-238.2187194824219	898.5711669921877	-23.67695617675784	-111.875	882.9630126953127	0.3123663067817551	-193.9556579589844	818.1130981445315	-14.10801124572757	-571.6547851562501	1241.8447265625	362.4519958496094	-530.3458862304689	1386.405029296875	331.4399719238281	-476.5239562988283	1393.967163085938	414.5001220703126	-415.1873779296877	1391.39306640625	433.9869689941407	-540.3258056640627	1091.890991210938	522.0257568359375	-563.0213623046876	1087.220947265625	434.7945861816407	-583.6685180664065	1085.218627929688	484.4666442871094	-467.5711975097658	827.884460449219	505.8505554199219	-537.9365234375002	838.7969970703127	544.1897583007812	-458.5337829589845	737.7564697265626	524.6071166992189	-561.6528930664065	758.7181396484376	538.09619140625	
66	0.65	-344.1359558105469	925.6500244140627	135.2690582275391	-537.0196533203126	959.1042480468752	216.9303436279297	-537.7183837890626	955.598327636719	306.7067565917969	-337.8495178222657	941.8121337890627	370.3672180175781	-442.4366760253907	870.6406250000002	73.74031066894527	-529.3732910156251	470.4443664550782	112.3037796020507	-503.0520324707033	465.233123779297	237.4786682128906	-573.8984375000001	423.7440490722657	107.3440399169921	-519.2231445312501	371.4176330566407	169.8035583496093	-791.0542602539065	127.97265625	148.7292480468749	-755.6207885742189	138.8506622314453	240.1294555664062	-843.7183837890627	127.2450866699219	206.3092956542968	-676.7922973632814	29.74572181701661	246.3731536865234	-671.6835327148439	36.35953903198243	187.5638275146484	-711.1563720703126	21.4714412689209	140.6551361083984	-381.7906188964845	865.8150024414065	436.6321105957032	-266.4954833984376	458.2635803222657	389.7756652832032	-242.9497833251954	480.3200683593751	263.6954040527344	-266.0318298339845	420.690155029297	388.7412109375001	-198.0269165039063	428.7729492187501	341.3218383789063	-224.1038208007813	61.91055297851564	338.1720886230469	-214.6778869628907	92.43493652343751	244.488265991211	-275.5320434570314	23.09885215759278	276.7608032226562	-70.61244201660161	38.25754547119141	260.7416992187501	-84.85037994384771	50.81164169311525	315.1011962890626	-110.4909057617188	30.19422721862794	359.9053344726563	-463.1743164062502	1449.290649414063	251.0489959716797	-552.7947998046876	1225.9853515625	245.9074554443359	-311.5324096679689	1165.270263671875	246.5514068603516	-345.6389465332032	1354.489990234375	253.275390625	-546.5081176757814	1260.539672851563	127.9432830810546	-515.1024169921876	1398.48974609375	170.1005859375	-472.1903076171876	1405.006591796875	86.42243957519527	-399.7997131347657	1408.595458984375	65.22007751464841	-387.4151916503907	1092.011352539063	-23.44430351257329	-412.6270446777345	1075.404052734375	60.23092269897457	-417.6603393554689	1058.166259765625	9.79508113861079	-168.709213256836	932.198181152344	13.63981342315672	-229.7144165039063	898.2338867187502	-22.57826614379886	-103.6830520629883	880.6950683593752	1.748467683792102	-186.6590576171875	817.2439575195315	-13.30944252014163	-558.7479248046876	1242.060302734375	363.985595703125	-517.7483520507814	1386.735229492188	333.4543151855469	-464.0194091796877	1394.142700195313	416.6101989746094	-402.6570129394533	1391.612548828125	436.1195678710938	-526.9639282226565	1091.384521484375	523.0769653320312	-549.4476928710939	1086.856079101563	435.7676391601563	-570.201843261719	1084.649780273438	485.3994445800782	-453.309783935547	827.6531982421877	506.4916381835938	-523.9763793945315	838.246276855469	544.4988403320312	-444.0706481933595	737.5603027343751	525.3217163085939	-547.3458251953127	758.1720581054689	538.1653442382812	
67	0.66	-330.8960571289063	926.3549804687502	136.6581726074219	-523.7354125976564	960.1619873046877	217.1868438720703	-524.6010742187501	957.0625000000002	307.2504272460938	-324.7262573242189	943.363464355469	371.4564208984375	-428.6324768066407	870.8238525390627	74.81967163085933	-510.9549560546876	469.808319091797	110.2730484008789	-482.5344848632814	462.706024169922	235.1194305419922	-556.2139892578126	424.2374877929689	105.286018371582	-501.6556396484376	369.8519897460938	166.1182403564453	-782.8233642578127	136.2205657958985	147.5844116210937	-745.4681396484376	144.9607238769532	238.2450714111328	-834.1130981445315	139.1105041503907	205.8574523925781	-675.5126342773439	31.71520614624024	246.1218719482422	-670.9396362304689	36.49631500244141	187.5672760009765	-710.5838623046876	23.46077919006348	141.4309082031249	-369.0460510253907	867.4780273437502	437.7226562500001	-256.1759338378907	458.6578369140626	390.7076110839844	-232.5099029541016	480.7752990722657	264.7491455078125	-256.2187500000001	421.0882568359376	389.5984191894532	-188.4704589843751	428.0227661132814	341.9793090820313	-222.5749969482423	61.67387008666994	338.2832641601563	-212.9219055175782	91.87896728515626	244.3933868408203	-275.2602844238282	23.74224472045899	277.2210693359375	-69.38703155517582	34.28192520141602	260.1813659667969	-82.90850067138678	47.84505462646485	315.0046081542969	-109.2756118774415	28.08079719543458	360.6296691894532	-450.780731201172	1450.334716796875	253.4150238037109	-540.0372314453126	1226.800659179688	247.1060638427734	-298.3845825195314	1166.789306640625	247.9608764648438	-333.0205383300782	1355.809814453125	255.2860565185547	-533.5121459960939	1261.916748046875	129.2597961425781	-502.5535583496095	1399.603515625	172.0310668945312	-459.4675903320314	1406.785888671875	88.56332397460933	-387.1186828613282	1410.679077148438	67.4803771972656	-376.2640075683594	1094.170654296875	-21.7970752716065	-401.6050720214845	1077.841796875	61.99708175659176	-406.930145263672	1060.86767578125	11.43503093719478	-160.2524871826172	930.5759887695315	15.17695140838621	-221.8370971679688	897.8222656250002	-21.40245056152347	-96.17034149169925	878.0197753906252	3.207848787307728	-180.2295837402344	816.2519531250002	-12.47017669677737	-545.8204345703126	1242.474731445313	365.5765380859375	-505.2023010253908	1387.231811523438	335.4649353027344	-451.5390014648439	1394.554321289063	418.6887817382813	-390.1693725585939	1392.09130859375	438.2055664062501	-513.4403076171877	1091.111938476563	524.1363525390625	-535.8071289062501	1086.734985351563	436.7784423828126	-556.6115722656252	1084.315795898438	486.3894042968751	-438.7810974121095	827.6893310546877	507.0519409179688	-509.6904907226564	837.9432373046877	544.8132934570312	-429.3176574707033	737.6015014648439	525.8524169921876	-532.7288208007815	757.8516235351564	538.2297973632812	
68	0.67	-317.7828369140626	927.2534790039065	138.1521148681641	-510.5621032714845	961.4384765625002	217.5190887451172	-511.5409240722658	958.775817871094	307.9066467285156	-311.6766052246095	945.0281982421877	372.5520629882812	-414.8289184570314	871.1929321289065	75.95661926269527	-491.5346069335939	469.1340637207032	108.1341018676758	-460.795135498047	460.0649414062501	232.4845275878906	-537.3607788085939	424.6963806152345	103.0777359008789	-483.0216369628907	368.3546752929688	162.2322998046875	-773.1160278320315	144.7492370605469	146.3026123046874	-733.9605712890626	151.3334350585938	236.2738037109375	-822.9647216796877	151.3115844726563	205.1876678466796	-673.0434570312501	34.24118804931641	245.6648712158203	-669.2179565429689	37.12458801269532	187.5046081542968	-708.8411254882814	26.08608055114747	142.067153930664	-356.4109497070314	869.2708129882815	438.8744812011719	-246.5803070068361	458.9735717773439	391.6430664062501	-222.7559661865235	481.1248779296876	265.8157348632813	-247.1768341064454	421.4217834472657	390.4695739746094	-179.6080780029297	427.2438049316407	342.7517089843751	-221.2655639648438	61.60473251342775	338.4123535156251	-211.3998413085938	91.5671844482422	244.3610229492188	-274.899383544922	24.3354835510254	277.662353515625	-68.35523986816411	31.20390129089356	259.7264709472657	-81.15736389160162	45.67705154418946	314.9813537597657	-108.1891098022462	26.63881301879884	361.4994812011719	-438.4845581054689	1451.533447265625	255.7335968017578	-527.3528442382814	1227.757446289063	248.3404083251953	-285.2827453613282	1168.541870117188	249.3302612304688	-320.5318908691407	1357.342529296875	257.2443237304688	-520.5972900390626	1263.435302734375	130.5587158203125	-490.1487121582032	1400.836303710938	173.9507293701172	-446.9248046875001	1408.72509765625	90.69808959960933	-374.6330566406251	1412.965942382813	69.70588684082028	-365.2549438476563	1096.469970703125	-20.06592178344732	-390.7639160156251	1080.523071289063	63.8308067321777	-396.4019775390626	1063.718383789063	13.14485836029048	-152.2892150878907	928.7651977539065	16.73302459716795	-214.5420532226563	897.3397216796877	-20.1600322723389	-89.30886840820314	874.9655761718752	4.698358058929434	-174.6116180419922	815.1508789062502	-11.59106254577639	-532.8951416015626	1243.060546875	367.21240234375	-492.7212829589845	1387.869995117188	337.4549865722656	-439.0980224609377	1395.178466796875	420.7195739746094	-377.7338867187501	1392.806030273438	440.2304992675782	-499.7833557128908	1091.048583984375	525.1946411132812	-522.1140136718751	1086.8251953125	437.8139038085938	-542.9152832031252	1084.183349609375	487.4185180664063	-423.9816284179689	827.9807128906252	507.5404968261719	-495.0790100097658	837.8653564453127	545.1404418945312	-414.2567749023439	737.8704223632814	526.1997680664064	-517.7861328125002	757.7307739257814	538.2993774414062	
